<?xml version="1.0" encoding="UTF-8"?>
<svg id="OBJECTS" xmlns="http://www.w3.org/2000/svg" viewBox="0 0 750 500">
  <path fill="white" d="M398.29,85.49c57.41,0,64.21.22,86.89,1.25,20.96.96,32.35,4.46,39.93,7.4,9.34,3.45,17.79,8.94,24.72,16.08,7.14,6.94,12.64,15.38,16.08,24.72,2.94,7.58,6.45,18.96,7.4,39.93,1.03,22.67,1.25,29.47,1.25,86.89s-.22,64.21-1.25,86.89c-.96,20.96-4.46,32.35-7.4,39.93-7.23,18.75-22.06,33.57-40.81,40.81-7.58,2.94-18.96,6.45-39.93,7.4-22.67,1.03-29.47,1.25-86.89,1.25s-64.22-.22-86.89-1.25c-20.96-.96-32.35-4.46-39.93-7.4-9.34-3.45-17.79-8.94-24.72-16.08-7.14-6.94-12.64-15.38-16.08-24.72-2.94-7.58-6.45-18.96-7.4-39.93-1.03-22.67-1.25-29.47-1.25-86.89s.22-64.21,1.25-86.89c.96-20.96,4.46-32.35,7.4-39.93,3.45-9.34,8.94-17.79,16.09-24.72,6.94-7.14,15.38-12.64,24.72-16.08,7.58-2.94,18.96-6.45,39.93-7.4,22.67-1.03,29.47-1.25,86.89-1.25M398.29,46.74c-58.4,0-65.72.25-88.65,1.29-22.89,1.04-38.52,4.68-52.19,9.99-14.35,5.4-27.34,13.86-38.08,24.8-10.94,10.74-19.41,23.74-24.81,38.08-5.31,13.68-8.95,29.31-9.99,52.19-1.05,22.93-1.3,30.26-1.3,88.65s.25,65.72,1.3,88.65c1.04,22.89,4.68,38.52,9.99,52.19,5.4,14.35,13.86,27.34,24.8,38.08,10.74,10.94,23.74,19.4,38.08,24.8,13.68,5.32,29.31,8.95,52.19,9.99,22.93,1.05,30.26,1.29,88.65,1.29s65.72-.25,88.65-1.29c22.89-1.04,38.52-4.68,52.19-9.99,28.88-11.17,51.71-34,62.89-62.89,5.32-13.68,8.95-29.31,9.99-52.19,1.05-22.93,1.29-30.26,1.29-88.65s-.25-65.72-1.29-88.65c-1.04-22.89-4.68-38.52-9.99-52.19-5.4-14.35-13.86-27.34-24.8-38.08-10.74-10.94-23.74-19.41-38.09-24.81-13.68-5.31-29.31-8.95-52.19-9.99-22.93-1.05-30.26-1.3-88.65-1.3h0Z"/>
  <path fill="white" d="M398.29,151.35c-60.98,0-110.42,49.44-110.42,110.42s49.44,110.42,110.42,110.42,110.42-49.44,110.42-110.42h0c0-60.98-49.43-110.42-110.42-110.42ZM398.29,333.44c-39.58,0-71.67-32.09-71.67-71.67,0-39.58,32.09-71.67,71.67-71.67,39.58,0,71.67,32.09,71.67,71.67,0,39.58-32.09,71.67-71.67,71.67Z"/>
  <path fill="white" d="M513.07,121.18c14.25,0,25.8,11.55,25.8,25.8s-11.55,25.8-25.8,25.8-25.8-11.55-25.8-25.8,11.55-25.8,25.8-25.8Z"/>
</svg>
