<?xml version="1.0" encoding="UTF-8"?>
<svg id="OBJECTS" xmlns="http://www.w3.org/2000/svg" viewBox="0 0 750 500">
  <path d="M495.34,149.45c-2.7-1.39-5.32-2.92-7.87-4.58-7.4-4.89-14.19-10.66-20.21-17.17-15.07-17.25-20.7-34.74-22.78-46.99h.08c-1.73-10.17-1.02-16.75-.91-16.75h-68.65v265.47c0,3.56,0,7.09-.15,10.57,0,.43-.04.83-.07,1.3,0,.19,0,.39-.04.59v.15c-1.47,19.34-12.46,36.69-29.33,46.27-8.66,4.92-18.45,7.51-28.41,7.49-31.99,0-57.91-26.08-57.91-58.29s25.92-58.29,57.91-58.29c6.05,0,12.07.95,17.83,2.82l.08-69.9c-35.33-4.56-70.97,5.86-98.27,28.75-11.83,10.28-21.78,22.55-29.4,36.25-2.9,5-13.83,25.08-15.16,57.66-.83,18.5,4.72,37.66,7.37,45.58v.17c1.67,4.66,8.12,20.58,18.64,33.99,8.48,10.76,18.5,20.22,29.74,28.06v-.17l.17.17c33.24,22.58,70.09,21.1,70.09,21.1,6.38-.26,27.75,0,52.02-11.5,26.92-12.75,42.24-31.75,42.24-31.75,9.79-11.35,17.57-24.28,23.02-38.25,6.21-16.33,8.29-35.92,8.29-43.75v-140.84c.83.5,11.93,7.84,11.93,7.84,0,0,15.98,10.24,40.91,16.91,17.89,4.75,41.99,5.75,41.99,5.75v-68.15c-8.44.92-25.59-1.75-43.15-10.5Z"/>
</svg>